<svg width="48" height="63" viewBox="0 0 48 63"  xmlns="http://www.w3.org/2000/svg">
<mask id="path-1-inside-1_739_3725" fill="white">
<path d="M26.7363 7.8048C25.5657 6.79469 24.0714 6.30083 22.5289 6.41427C21.2266 6.50992 20.0296 7.02603 19.0885 7.87219C17.4426 5.86775 14.5812 5.15462 12.1323 6.3151C9.68362 7.47553 8.42394 10.1416 8.93309 12.6847C7.68223 12.8772 6.52484 13.477 5.62617 14.4243C4.56162 15.5464 3.99765 17.0156 4.0382 18.5612C4.07869 20.107 4.71895 21.5444 5.84137 22.6086C6.22327 22.9705 7.0634 23.4846 10.3992 24.5532C11.6117 24.9417 12.8323 25.2995 13.7331 25.5559C12.702 28.0843 12.6929 31.0202 13.9517 33.6765C15.2569 36.4311 19.3381 42.6645 23.6552 47.9318C26.0651 50.872 28.2253 53.1292 30.0759 54.6404C32.575 56.6814 34.506 57.3341 35.9792 56.6359C37.4525 55.9377 38.1701 54.03 38.1729 50.8034C38.1751 48.4142 37.796 45.313 37.0463 41.5859C35.7033 34.9093 33.4631 27.8035 32.1577 25.0489C30.8989 22.3926 28.6207 20.5407 26.0109 19.7376C26.3831 18.8779 26.879 17.7064 27.346 16.5224C28.6312 13.2638 28.7653 12.2881 28.727 11.763C28.614 10.2207 27.9071 8.81507 26.7363 7.8048V7.8048ZM13.0639 8.28076C14.866 7.42675 17.0262 8.19655 17.8794 9.9968C18.4951 11.2962 19.3191 16.326 19.87 19.8051C19.4893 19.9323 19.1121 20.0829 18.7405 20.259C18.3767 20.4314 18.0287 20.6234 17.6957 20.8322C15.121 17.9511 11.9398 14.3533 11.3431 13.0943C10.49 11.294 11.2619 9.13468 13.0639 8.28076V8.28076ZM7.33779 21.03C6.63752 20.366 6.23797 19.469 6.21274 18.5043C6.18743 17.5394 6.5395 16.6221 7.20426 15.9215C7.89548 15.1931 8.83156 14.7938 9.82029 14.7931C10.8471 16.3667 13.0648 18.9107 15.9868 22.184C15.5446 22.6202 15.1467 23.0934 14.7968 23.5964C10.4654 22.387 7.77457 21.3962 7.33779 21.03V21.03ZM30.1921 25.9803C31.4426 28.619 33.6034 35.4996 34.914 42.0148C36.7577 51.1812 35.8655 54.2827 35.0477 54.6703C34.323 55.0137 31.9115 54.0521 27.2478 48.797L30.2906 47.3551C30.8334 47.0979 31.0649 46.4493 30.8076 45.9065C30.5504 45.3637 29.9019 45.1322 29.359 45.3894L25.7786 47.0862C25.6333 46.9118 25.4867 46.7348 25.3377 46.5529C21.125 41.4131 17.1678 35.3837 15.9174 32.7449C14.0522 28.809 15.7367 24.0896 19.6722 22.2246C23.6077 20.3596 28.3268 22.0445 30.1921 25.9803V25.9803ZM26.557 11.9122C26.5644 12.4911 25.6275 15.2014 23.8206 19.32C23.218 19.2729 22.6083 19.2805 21.999 19.3442C21.3505 15.2625 20.7506 11.756 20.1583 9.89409C20.785 9.12916 21.6869 8.65736 22.6883 8.58373C23.6515 8.51289 24.5843 8.82122 25.3151 9.45182C26.0459 10.0822 26.4872 10.9594 26.557 11.9122V11.9122Z"/>
</mask>
<path d="M26.7363 7.8048C25.5657 6.79469 24.0714 6.30083 22.5289 6.41427C21.2266 6.50992 20.0296 7.02603 19.0885 7.87219C17.4426 5.86775 14.5812 5.15462 12.1323 6.3151C9.68362 7.47553 8.42394 10.1416 8.93309 12.6847C7.68223 12.8772 6.52484 13.477 5.62617 14.4243C4.56162 15.5464 3.99765 17.0156 4.0382 18.5612C4.07869 20.107 4.71895 21.5444 5.84137 22.6086C6.22327 22.9705 7.0634 23.4846 10.3992 24.5532C11.6117 24.9417 12.8323 25.2995 13.7331 25.5559C12.702 28.0843 12.6929 31.0202 13.9517 33.6765C15.2569 36.4311 19.3381 42.6645 23.6552 47.9318C26.0651 50.872 28.2253 53.1292 30.0759 54.6404C32.575 56.6814 34.506 57.3341 35.9792 56.6359C37.4525 55.9377 38.1701 54.03 38.1729 50.8034C38.1751 48.4142 37.796 45.313 37.0463 41.5859C35.7033 34.9093 33.4631 27.8035 32.1577 25.0489C30.8989 22.3926 28.6207 20.5407 26.0109 19.7376C26.3831 18.8779 26.879 17.7064 27.346 16.5224C28.6312 13.2638 28.7653 12.2881 28.727 11.763C28.614 10.2207 27.9071 8.81507 26.7363 7.8048V7.8048ZM13.0639 8.28076C14.866 7.42675 17.0262 8.19655 17.8794 9.9968C18.4951 11.2962 19.3191 16.326 19.87 19.8051C19.4893 19.9323 19.1121 20.0829 18.7405 20.259C18.3767 20.4314 18.0287 20.6234 17.6957 20.8322C15.121 17.9511 11.9398 14.3533 11.3431 13.0943C10.49 11.294 11.2619 9.13468 13.0639 8.28076V8.28076ZM7.33779 21.03C6.63752 20.366 6.23797 19.469 6.21274 18.5043C6.18743 17.5394 6.5395 16.6221 7.20426 15.9215C7.89548 15.1931 8.83156 14.7938 9.82029 14.7931C10.8471 16.3667 13.0648 18.9107 15.9868 22.184C15.5446 22.6202 15.1467 23.0934 14.7968 23.5964C10.4654 22.387 7.77457 21.3962 7.33779 21.03V21.03ZM30.1921 25.9803C31.4426 28.619 33.6034 35.4996 34.914 42.0148C36.7577 51.1812 35.8655 54.2827 35.0477 54.6703C34.323 55.0137 31.9115 54.0521 27.2478 48.797L30.2906 47.3551C30.8334 47.0979 31.0649 46.4493 30.8076 45.9065C30.5504 45.3637 29.9019 45.1322 29.359 45.3894L25.7786 47.0862C25.6333 46.9118 25.4867 46.7348 25.3377 46.5529C21.125 41.4131 17.1678 35.3837 15.9174 32.7449C14.0522 28.809 15.7367 24.0896 19.6722 22.2246C23.6077 20.3596 28.3268 22.0445 30.1921 25.9803V25.9803ZM26.557 11.9122C26.5644 12.4911 25.6275 15.2014 23.8206 19.32C23.218 19.2729 22.6083 19.2805 21.999 19.3442C21.3505 15.2625 20.7506 11.756 20.1583 9.89409C20.785 9.12916 21.6869 8.65736 22.6883 8.58373C23.6515 8.51289 24.5843 8.82122 25.3151 9.45182C26.0459 10.0822 26.4872 10.9594 26.557 11.9122V11.9122Z"  stroke="#F5FAFF" mask="url(#path-1-inside-1_739_3725)"/>
<mask id="path-2-inside-2_739_3725" fill="white">
<path d="M22.9739 29.3379C22.7166 28.7951 22.0681 28.5636 21.5253 28.8208L18.0477 30.4688C17.5049 30.7261 17.2734 31.3746 17.5307 31.9174C17.7879 32.4602 18.4364 32.6917 18.9793 32.4345L22.4568 30.7865C22.9996 30.5293 23.2311 29.8807 22.9739 29.3379Z"/>
</mask>
<path d="M22.9739 29.3379C22.7166 28.7951 22.0681 28.5636 21.5253 28.8208L18.0477 30.4688C17.5049 30.7261 17.2734 31.3746 17.5307 31.9174C17.7879 32.4602 18.4364 32.6917 18.9793 32.4345L22.4568 30.7865C22.9996 30.5293 23.2311 29.8807 22.9739 29.3379Z"  stroke="#F5FAFF" mask="url(#path-2-inside-2_739_3725)"/>
<mask id="path-3-inside-3_739_3725" fill="white">
<path d="M30.1313 33.5316L24.5668 36.1686C24.024 36.4259 23.7925 37.0744 24.0497 37.6172C24.307 38.16 24.9555 38.3915 25.4983 38.1343L31.0628 35.4973C31.6056 35.2401 31.8371 34.5915 31.5799 34.0487C31.3227 33.5059 30.6741 33.2744 30.1313 33.5316Z"/>
</mask>
<path d="M30.1313 33.5316L24.5668 36.1686C24.024 36.4259 23.7925 37.0744 24.0497 37.6172C24.307 38.16 24.9555 38.3915 25.4983 38.1343L31.0628 35.4973C31.6056 35.2401 31.8371 34.5915 31.5799 34.0487C31.3227 33.5059 30.6741 33.2744 30.1313 33.5316Z"  stroke="#F5FAFF" mask="url(#path-3-inside-3_739_3725)"/>
</svg>
