<svg  fill="none" xmlns="http://www.w3.org/2000/svg">
<path d="M34.1355 67.9174C15.4856 67.9174 0.313477 52.7402 0.313477 34.0837C0.313477 15.4272 15.4856 0.25 34.1355 0.25C52.7854 0.25 67.9575 15.4272 67.9575 34.0837C67.9575 52.7402 52.7854 67.9174 34.1355 67.9174ZM34.1355 4.01046C17.5577 4.01046 4.07248 17.5004 4.07248 34.0837C4.07248 50.667 17.5577 64.1569 34.1355 64.1569C50.7133 64.1569 64.1985 50.667 64.1985 34.0837C64.1985 17.5004 50.7133 4.01046 34.1355 4.01046Z" fill="#64D370" stroke="#E5E5E5" stroke-width="0.5"/>
<path d="M47.7146 51.7445L47.7141 51.744L32.8076 36.8324C32.454 36.4787 32.2563 35.9998 32.2563 35.504V15.6215C32.2563 14.5836 33.0985 13.7413 34.1358 13.7413C35.1732 13.7413 36.0153 14.5836 36.0153 15.6215V34.6204V34.7239L36.0885 34.7971L50.3707 49.0841C51.1049 49.8186 51.1049 51.0095 50.3707 51.744L50.3701 51.7445C50.0043 52.1127 49.5242 52.2958 49.0424 52.2958C48.5605 52.2958 48.0804 52.1127 47.7146 51.7445Z" fill="#64D370" stroke="#E5E5E5" stroke-width="0.5"/>
</svg>
