<svg width="100" height="69" viewBox="0 0 100 69" fill="none" xmlns="http://www.w3.org/2000/svg">
<path d="M71.3641 28.7604V28.8604H71.4641H84.5363C88.6251 28.8604 92.3854 30.8851 94.5988 34.2751L94.6826 34.2204L94.5988 34.2751L99.6534 42.0115L99.7371 41.9568L99.6534 42.0115C99.8105 42.2519 99.8947 42.535 99.8947 42.8242V60.4726C99.8947 61.2939 99.231 61.9586 98.4102 61.9586H93.0691H92.9896L92.9717 62.0359C92.0804 65.8714 88.6415 68.7414 84.5408 68.7414C80.4401 68.7414 77.0022 65.8714 76.11 62.0359L76.092 61.9586H76.0126H45.5175H45.4381L45.4201 62.0359C44.5288 65.8714 41.0917 68.7414 36.9892 68.7414C32.8877 68.7414 29.4497 65.8714 28.5584 62.0359L28.5404 61.9586H28.461H14.403C13.5829 61.9586 12.9176 61.2938 12.9176 60.4726V58.9076C12.9176 55.7027 14.8534 52.9485 17.6132 51.7308L17.6728 51.7045V51.6393V44.617V44.517H17.5728H1.72259C0.901719 44.517 0.237207 43.8523 0.237207 43.031C0.237207 42.2098 0.901719 41.5451 1.72259 41.5451H17.5728H17.6728V41.4451V38.2742V38.1742H17.5728H11.2322C10.4122 38.1742 9.7477 37.5103 9.7477 36.6891C9.7477 35.8679 10.4123 35.2032 11.2322 35.2032H17.5728H17.6728V35.1032V31.9323V31.8323H17.5728H1.72259C0.901719 31.8323 0.237207 31.1676 0.237207 30.3463C0.237207 29.5251 0.901719 28.8604 1.72259 28.8604H14.8111H15.1409L14.8666 28.6772C10.7174 25.9059 7.9773 21.1832 7.9773 15.8298C7.9773 7.31574 14.9017 0.388086 23.4137 0.388086C30.9306 0.388086 37.2028 5.79571 38.5671 12.9235L38.5826 13.0047H38.6653H63.1363C67.6739 13.0047 71.3641 16.6961 71.3641 21.2354V28.7604ZM20.7427 44.517H20.6427V44.617V50.9607V51.0607H20.7427C20.7534 51.0607 20.7627 51.0594 20.7661 51.0589L20.7664 51.0589H68.2942H68.3942V50.9589V21.2354C68.3942 18.3359 66.0358 15.9757 63.1372 15.9757H38.9383H38.8399L38.8383 16.0741C38.7554 21.3258 36.0459 25.9484 31.9608 28.6772L31.6866 28.8604H32.0163H41.3481C42.1681 28.8604 42.8335 29.5251 42.8335 30.3463C42.8335 31.1675 42.1681 31.8323 41.3481 31.8323H20.7427H20.6427V31.9323V35.1032V35.2032H20.7427H31.8386C32.6585 35.2032 33.323 35.8679 33.323 36.6891C33.323 37.5103 32.6586 38.1742 31.8386 38.1742H20.7427H20.6427V38.2742V41.4451V41.5451H20.7427H23.9125C24.7334 41.5451 25.3979 42.2098 25.3979 43.031C25.3979 43.8523 24.7334 44.517 23.9125 44.517H20.7427ZM68.2942 58.9867H68.3942V58.8867V54.1298V54.0298H68.2942H43.4088H43.1798L43.3354 54.1978C44.5164 55.4724 45.3161 57.0976 45.5626 58.9002L45.5744 58.9867H45.6617H68.2942ZM30.6431 54.1978L30.7986 54.0298H30.5697H20.7626C18.0818 54.0298 15.8985 56.2074 15.8874 58.8863L15.887 58.9867H15.9874H28.3177H28.405L28.4168 58.9002C28.6624 57.0976 29.463 55.4725 30.6431 54.1978ZM96.8248 58.9867H96.9248V58.8867V43.296V43.2662L96.9085 43.2413L92.1134 35.8996C90.4494 33.3522 87.616 31.8323 84.5363 31.8323H71.4641H71.3641V31.9323V58.8867V58.9867H71.4641H75.8684H75.9556L75.9674 58.9002C76.5449 54.6782 80.1648 51.4109 84.5408 51.4109C88.9168 51.4109 92.5376 54.6783 93.1142 58.9002L93.126 58.9867H93.2133H96.8248ZM23.4137 3.35904C16.5398 3.35904 10.9472 8.95368 10.9472 15.8298C10.9472 22.706 16.5398 28.3006 23.4137 28.3006C30.2885 28.3006 35.8802 22.706 35.8802 15.8298C35.8802 8.95369 30.2885 3.35904 23.4137 3.35904ZM31.2969 60.0761C31.2969 63.2161 33.8512 65.7704 36.9892 65.7704C40.1282 65.7704 42.6816 63.2161 42.6816 60.0761C42.6816 56.9371 40.1282 54.3818 36.9892 54.3818C33.8512 54.3818 31.2969 56.9371 31.2969 60.0761ZM78.8484 60.0761C78.8484 63.2161 81.4028 65.7704 84.5408 65.7704C87.6798 65.7704 90.2332 63.2161 90.2332 60.0761C90.2332 56.9371 87.6798 54.3818 84.5408 54.3818C81.4028 54.3818 78.8484 56.9371 78.8484 60.0761Z" fill="#64D370" stroke="#E5E5E5" stroke-width="0.2"/>
<path d="M22.4272 15.3454L22.4081 15.3717L19.1729 19.811L19.1729 19.8111C18.6893 20.4742 18.8347 21.4023 19.4974 21.8851L19.4976 21.8852C19.7629 22.0791 20.0686 22.1717 20.3718 22.1717C20.83 22.1717 21.2819 21.96 21.5725 21.5605L21.5726 21.5604L25.1124 16.7047L22.4272 15.3454ZM22.4272 15.3454V15.3128M22.4272 15.3454V15.3128M22.4272 15.3128V8.89288C22.4272 8.07168 23.0917 7.40786 23.9117 7.40786C24.7327 7.40786 25.3971 8.07172 25.3971 8.89288V15.83M22.4272 15.3128L25.3971 15.83M25.3971 15.83C25.3971 16.1453 25.2969 16.4513 25.1125 16.7046L25.3971 15.83Z" fill="#64D370" stroke="#E5E5E5" stroke-width="0.2"/>
<path d="M93.946 43.7184L93.9461 43.7185C94.42 44.545 94.4191 45.5357 93.9382 46.364C93.4572 47.1925 92.6003 47.6879 91.6421 47.6879H80.9743C80.1534 47.6879 79.4889 47.0232 79.4889 46.2019V35.1031C79.4889 34.2819 80.1534 33.6172 80.9743 33.6172H84.0063C86.5789 33.6172 88.97 35.0061 90.2447 37.2377L93.946 43.7184ZM82.4597 44.6169V44.7169H82.5597H90.9229H91.0951L91.0097 44.5673L87.6657 38.7126C87.6657 38.7126 87.6657 38.7126 87.6657 38.7126C86.9178 37.4021 85.516 36.5891 84.0063 36.5891H82.5597H82.4597V36.6891V44.6169Z" fill="#64D370" stroke="#E5E5E5" stroke-width="0.2"/>
</svg>
