<svg width="67" height="67" viewBox="0 0 67 67" fill="none" xmlns="http://www.w3.org/2000/svg">
<path d="M60.3362 45.4226L45.3301 54.3162L39.6142 50.7029H46.8006C47.9005 50.7029 48.9554 50.2658 49.7332 49.4878C50.511 48.7097 50.948 47.6545 50.948 46.5541C50.948 45.4538 50.511 44.3985 49.7332 43.6205C48.9554 42.8424 47.9005 42.4053 46.8006 42.4053H34.4564C33.0366 42.397 31.6277 42.6528 30.3014 43.1596L20.7021 47.5197V46.5541C20.7021 46.254 20.5829 45.9662 20.3708 45.754C20.1586 45.5418 19.8709 45.4226 19.5709 45.4226H11.2761C10.9761 45.4226 10.6884 45.5418 10.4763 45.754C10.2642 45.9662 10.145 46.254 10.145 46.5541V65.4124C10.145 65.7125 10.2642 66.0003 10.4763 66.2125C10.6884 66.4247 10.9761 66.5439 11.2761 66.5439H19.5709C19.8709 66.5439 20.1586 66.4247 20.3708 66.2125C20.5829 66.0003 20.7021 65.7125 20.7021 65.4124V64.2809H44.1462C45.63 64.2834 47.0765 63.816 48.2785 62.9458L64.3102 51.4573C64.9804 50.8793 65.4173 50.0771 65.5394 49.2004C65.6615 48.3237 65.4604 47.4325 64.9737 46.6933C64.4869 45.9542 63.7477 45.4175 62.8943 45.1837C62.0409 44.9498 61.1316 45.0348 60.3362 45.4226ZM18.4398 64.2809H12.4072V47.6856H18.4398V64.2809ZM62.9981 49.6544L46.9589 61.1127C46.1402 61.7035 45.1557 62.0203 44.1462 62.0179H20.7021V50.0014L31.1686 45.2717C32.2182 44.8703 33.3327 44.6657 34.4564 44.6683H46.8006C47.3005 44.6683 47.7801 44.867 48.1336 45.2206C48.4871 45.5743 48.6857 46.054 48.6857 46.5541C48.6857 47.0543 48.4871 47.5339 48.1336 47.8876C47.7801 48.2413 47.3005 48.4399 46.8006 48.4399H35.7081C35.4627 48.4396 35.2237 48.5193 35.0275 48.6667C34.8312 48.8142 34.6882 49.0216 34.6201 49.2575C34.552 49.4934 34.5624 49.7451 34.6499 49.9746C34.7373 50.204 34.897 50.3988 35.1049 50.5294L44.7042 56.5641C44.8823 56.6735 45.0872 56.7314 45.2962 56.7314C45.5052 56.7314 45.7101 56.6735 45.8881 56.5641L61.4975 47.2934C61.8032 47.1142 62.1661 47.0595 62.511 47.1406C62.8559 47.2218 63.1564 47.4325 63.3502 47.7292C63.544 48.0259 63.6164 48.3858 63.5522 48.7343C63.4881 49.0829 63.2924 49.3934 63.0056 49.6016L62.9981 49.6544Z" fill="#64D370"/>
<path d="M65.5697 36.3704H62.9304C62.7399 29.4365 60.0779 22.7991 55.4248 17.6561C50.7717 12.5131 44.4341 9.20344 37.5558 8.32437C38.1866 7.61886 38.5997 6.74581 38.7454 5.81059C38.8911 4.87537 38.763 3.91797 38.3767 3.05395C37.9904 2.18992 37.3624 1.45621 36.5684 0.941375C35.7745 0.426539 34.8485 0.152588 33.9024 0.152588C32.9562 0.152588 32.0302 0.426539 31.2363 0.941375C30.4423 1.45621 29.8143 2.18992 29.428 3.05395C29.0417 3.91797 28.9136 4.87537 29.0593 5.81059C29.205 6.74581 29.6181 7.61886 30.2489 8.32437C23.3686 9.2003 17.0283 12.5088 12.3734 17.6523C7.71855 22.7957 5.05598 29.4349 4.86673 36.3704H1.4734C1.17341 36.3704 0.885704 36.4897 0.67358 36.7019C0.461455 36.9141 0.342285 37.2019 0.342285 37.5019C0.342285 37.802 0.461455 38.0898 0.67358 38.302C0.885704 38.5142 1.17341 38.6334 1.4734 38.6334H65.5697C65.8697 38.6334 66.1574 38.5142 66.3695 38.302C66.5816 38.0898 66.7008 37.802 66.7008 37.5019C66.7008 37.2019 66.5816 36.9141 66.3695 36.7019C66.1574 36.4897 65.8697 36.3704 65.5697 36.3704ZM33.8986 2.42549C34.4206 2.42549 34.9309 2.58033 35.3649 2.87043C35.7989 3.16054 36.1372 3.57288 36.3369 4.0553C36.5367 4.53773 36.589 5.06858 36.4871 5.58072C36.3853 6.09286 36.1339 6.56329 35.7648 6.93253C35.3957 7.30176 34.9254 7.55321 34.4135 7.65508C33.9015 7.75696 33.3708 7.70467 32.8886 7.50484C32.4063 7.30502 31.9941 6.96662 31.7041 6.53245C31.4141 6.09827 31.2593 5.58782 31.2593 5.06565C31.2593 4.36544 31.5374 3.6939 32.0323 3.19877C32.5273 2.70365 33.1986 2.42549 33.8986 2.42549ZM33.8986 10.346C40.8679 10.3489 47.5617 13.0684 52.5597 17.9272C57.5576 22.786 60.4662 29.4017 60.6682 36.3704H7.12895C7.33099 29.4017 10.2396 22.786 15.2375 17.9272C20.2354 13.0684 26.9293 10.3489 33.8986 10.346Z" fill="#64D370"/>
<path d="M27.8188 15.7092C24.7116 16.5893 21.8335 18.1366 19.3851 20.2432C16.9367 22.3497 14.9769 24.965 13.6422 27.9067C13.5672 28.0438 13.5213 28.1949 13.5076 28.3506C13.4938 28.5063 13.5124 28.6632 13.5623 28.8113C13.6121 28.9594 13.6921 29.0956 13.7972 29.2113C13.9023 29.3269 14.0302 29.4196 14.1728 29.4833C14.3154 29.5471 14.4697 29.5806 14.626 29.5818C14.7822 29.5829 14.937 29.5517 15.0805 29.49C15.2241 29.4283 15.3533 29.3376 15.4601 29.2235C15.5669 29.1094 15.6489 28.9744 15.7009 28.827C16.9025 26.1881 18.6643 23.8426 20.8638 21.9537C23.0632 20.0648 25.6476 18.6778 28.4372 17.8892C28.5803 17.8486 28.714 17.7802 28.8306 17.6879C28.9473 17.5956 29.0446 17.4812 29.1171 17.3512C29.1896 17.2213 29.2358 17.0784 29.253 16.9306C29.2703 16.7828 29.2582 16.633 29.2176 16.4899C29.177 16.3468 29.1087 16.213 29.0164 16.0963C28.9241 15.9796 28.8098 15.8822 28.6799 15.8097C28.55 15.7372 28.4071 15.691 28.2594 15.6738C28.1116 15.6565 27.9619 15.6686 27.8188 15.7092Z" fill="#64D370"/>
</svg>
