<svg width="51" height="65" viewBox="0 0 51 65" fill="none" xmlns="http://www.w3.org/2000/svg">
<path d="M8.71986 53.3706L9.49919 53.5105C9.69085 53.5449 11.6206 53.8782 14.2764 53.8782C18.2505 53.8782 23.8496 53.1316 27.6765 49.5196C34.0608 43.4939 32.7732 32.0816 32.7152 31.5986L32.6209 30.8123L31.8416 30.6724C31.3631 30.5864 20.0487 28.6377 13.6643 34.6635C7.27993 40.6891 8.56759 52.1015 8.62553 52.5844L8.71986 53.3706ZM26.2074 47.9619C22.1461 51.7953 15.4319 51.8863 12.0157 51.6409L21.6033 42.5918L28.7298 44.4417C28.1006 45.7393 27.2789 46.9506 26.2074 47.9619ZM29.5378 42.4391L23.4417 40.8566L30.7033 34.0029C30.7311 36.0719 30.5669 39.3344 29.5378 42.4391ZM29.1451 32.5295L17.156 43.8452L15.5677 35.8335C19.586 32.4436 25.8011 32.3092 29.1451 32.5295ZM13.7715 37.782L15.3174 45.5804L10.6356 49.9994C10.6123 46.9658 11.0156 41.6024 13.7715 37.782Z" fill="#64D370"/>
<path d="M43.4308 11.2313C43.4308 8.46707 42.3545 5.86802 40.4005 3.91338C38.4477 1.95817 35.8494 0.881348 33.0844 0.881348C32.223 0.881348 31.3669 0.988131 30.54 1.19841L31.0678 3.27368C31.7222 3.10708 32.4008 3.02272 33.0844 3.02272C35.2773 3.02272 37.3377 3.87655 38.8865 5.42718C40.4365 6.97768 41.2902 9.03896 41.2902 11.2313V19.3928H31.0151V11.2317C31.0151 5.52469 26.3738 0.881776 20.6687 0.881776C14.9636 0.881776 10.3223 5.52469 10.3223 11.2317V19.3928H0.404053V59.1508C0.404053 62.1028 2.8047 64.5042 5.75564 64.5042H45.5714C48.5224 64.5042 50.923 62.1028 50.923 59.1508V19.3928H43.4308V11.2313ZM12.463 11.2319C12.463 6.70558 16.144 3.02329 20.6687 3.02329C25.1934 3.02329 28.8745 6.70558 28.8745 11.2319V19.3929H24.8786V11.2314C24.8786 10.223 25.0589 9.24082 25.4144 8.31246L23.4153 7.54657C22.9659 8.72032 22.738 9.96017 22.738 11.2314V19.3929H12.463V11.2319ZM38.7928 59.1508C38.7928 60.922 37.3524 62.3629 35.5818 62.3629H5.75564C3.98505 62.3629 2.54469 60.922 2.54469 59.1508V21.5341H38.7928V59.1508ZM45.5714 62.3629H41.7112L44.8579 56.8767L47.5926 61.6442C47.0405 62.0932 46.3369 62.3629 45.5714 62.3629ZM43.7876 21.5341V27.6013H45.9282V21.5341H48.7824V59.1508C48.7824 59.2339 48.7782 59.316 48.772 59.3975L45.9282 54.4399V30.4565H43.7876V54.4399L40.9263 59.4286C40.931 59.3365 40.9334 59.244 40.9334 59.1508V21.5341H43.7876Z" fill="#64D370"/>
</svg>
