<svg width="70" height="68" viewBox="0 0 70 68" fill="none" xmlns="http://www.w3.org/2000/svg">
<path d="M63.5657 14.9333H66.6658C67.4007 14.9333 67.9964 14.3374 67.9964 13.6023C67.9964 12.8671 67.4007 12.2712 66.6658 12.2712H60.8554C60.1205 12.2712 59.5247 12.8671 59.5247 13.6023V19.4147C59.5247 20.1498 60.1205 20.7457 60.8554 20.7457C61.5903 20.7457 62.186 20.1498 62.186 19.4147V17.7629C69.2309 29.8834 67.3584 45.6654 57.2463 55.7809C48.3287 64.7016 35.0055 67.4231 23.304 62.7139C22.6222 62.4397 21.8472 62.7698 21.5729 63.452C21.2985 64.1341 21.6289 64.9094 22.3107 65.1837C26.4445 66.8473 30.764 67.6559 35.0451 67.6559C43.909 67.6559 52.6054 64.1884 59.1282 57.6635C64.9529 51.8368 68.468 44.1055 69.0263 35.8939C69.5311 28.467 67.5995 21.1038 63.5657 14.9333Z" fill="#64D370"/>
<path d="M8.70337 47.1105C7.96847 47.1105 7.37275 47.7064 7.37275 48.4416V50.3359C0.121556 38.177 1.93971 22.2185 12.1349 12.0198C21.1139 3.03771 34.509 0.345477 46.2598 5.1609C46.94 5.43976 47.7169 5.11391 47.9956 4.43387C48.2741 3.75356 47.9486 2.97621 47.2686 2.69762C41.13 0.181888 34.4303 -0.48498 27.8934 0.769291C21.1947 2.05458 15.0947 5.29401 10.2531 10.1373C4.4285 15.964 0.913273 23.6953 0.354946 31.9068C-0.154813 39.4052 1.81982 46.8383 5.93316 53.0448H2.77095C2.03605 53.0448 1.44033 53.6407 1.44033 54.3759C1.44033 55.111 2.03605 55.707 2.77095 55.707H8.70324C9.43814 55.707 10.0339 55.111 10.0339 54.3759V48.4416C10.034 47.7064 9.43827 47.1105 8.70337 47.1105Z" fill="#64D370"/>
<path d="M31.528 28.8503C31.3418 28.9424 31.1998 29.1047 31.1333 29.3016C31.0667 29.4984 31.081 29.7136 31.1731 29.8998L35.5708 38.7944C35.6629 38.9807 35.8252 39.1227 36.0219 39.1892C36.2187 39.2558 36.4339 39.2414 36.6201 39.1493C36.8063 39.0571 36.9483 38.8948 37.0149 38.698C37.0814 38.5011 37.0671 38.2859 36.975 38.0997L32.5773 29.2051C32.4853 29.0188 32.323 28.8768 32.1262 28.8103C31.9294 28.7438 31.7143 28.7581 31.528 28.8503Z" fill="#64D370"/>
<path d="M40.7189 36.2478L36.3212 27.3532C36.2292 27.167 36.0669 27.025 35.8701 26.9584C35.6733 26.8919 35.4581 26.9063 35.2719 26.9984C35.0857 27.0905 34.9437 27.2529 34.8772 27.4497C34.8106 27.6465 34.8249 27.8617 34.917 28.048L39.3147 36.9426C39.4068 37.1288 39.569 37.2708 39.7658 37.3374C39.9626 37.4039 40.1778 37.3895 40.364 37.2974C40.5502 37.2053 40.6922 37.0429 40.7588 36.8461C40.8253 36.6493 40.811 36.4341 40.7189 36.2478V36.2478Z" fill="#64D370"/>
<path d="M52.5375 17.7455C52.5201 17.6476 52.4751 17.5566 52.4079 17.4834C52.3793 17.4419 52.3466 17.4034 52.3103 17.3685C52.2699 17.3352 52.2262 17.306 52.1799 17.2815C52.1498 17.2579 52.1179 17.2367 52.0845 17.2181L52.0215 17.1968C51.5527 17.085 41.5533 14.3768 32.9718 16.8456C32.5178 15.128 31.9543 13.4413 31.2847 11.7959C31.2847 11.7959 31.2847 11.7959 31.2708 11.7678C31.257 11.7397 31.2546 11.735 31.2454 11.7163C31.2283 11.6724 31.2074 11.6301 31.1829 11.5899V11.5899C31.1356 11.5355 31.0807 11.4881 31.0201 11.4491L31.0062 11.421C30.9459 11.3839 30.8808 11.3553 30.8128 11.3361V11.3361C30.7501 11.3209 30.6859 11.3136 30.6214 11.3142L30.5933 11.3281C30.5282 11.3325 30.4639 11.3447 30.4017 11.3646L30.2099 11.4596C27.9778 12.7855 25.8659 14.3042 23.8982 15.9981C20.819 18.6285 16.7874 22.8196 15.0916 27.8476C12.1755 36.474 19.4637 42.5803 19.8872 42.9184L19.9034 42.9512C19.9443 42.9805 19.988 43.0057 20.0338 43.0265L20.106 43.0549L20.232 43.0858L20.3113 43.0931L20.3488 43.0746C22.5877 42.9702 24.7815 42.4083 26.795 41.4233C28.2882 40.6972 29.6305 39.6951 30.7512 38.4697L32.6721 42.355C33.4061 43.9016 34.6111 45.1758 36.1141 45.9946L37.6468 46.7977C38.8421 47.4649 39.8011 48.4866 40.3914 49.722L43.6663 56.3457C43.7584 56.5319 43.9206 56.6739 44.1174 56.7405C44.3141 56.807 44.5292 56.7927 44.7154 56.7006C44.9016 56.6085 45.0435 56.4461 45.11 56.2493C45.1766 56.0525 45.1622 55.8373 45.0702 55.6511L41.7953 49.0274C41.0613 47.4808 39.8563 46.2066 38.3533 45.3878L36.8298 44.6035C35.6282 43.9329 34.6656 42.9041 34.076 41.6604L28.8338 31.0578C28.7417 30.8716 28.5795 30.7296 28.3828 30.6631C28.186 30.5965 27.9709 30.6109 27.7847 30.703C27.5986 30.7951 27.4566 30.9574 27.3901 31.1542C27.3236 31.351 27.3379 31.5662 27.43 31.7524L29.9944 36.939C27.3794 40.1787 23.4227 41.1168 21.4884 41.3863L30.6032 14.446C31.7593 17.7896 32.4986 21.2632 32.8043 24.7879C32.8195 24.9951 32.9164 25.1879 33.0737 25.3237C33.2309 25.4595 33.4357 25.5272 33.6428 25.512C33.85 25.4968 34.0427 25.3999 34.1785 25.2426C34.3142 25.0853 34.3819 24.8805 34.3667 24.6732C34.2041 22.5471 33.8737 20.4371 33.3785 18.3631C40.1413 16.3979 48.0985 17.8968 50.7061 18.4943C49.7281 20.6037 46.9019 26.255 42.5155 30.4586L40.0645 25.5014C39.9724 25.3151 39.8102 25.1731 39.6134 25.1066C39.4167 25.04 39.2016 25.0544 39.0154 25.1465C38.8293 25.2386 38.6873 25.4009 38.6208 25.5977C38.5542 25.7945 38.5686 26.0097 38.6607 26.1959L43.9028 36.7985C44.5327 38.0222 44.7658 39.4118 44.5697 40.7741L44.2682 42.4614C44.0069 44.1533 44.2879 45.8845 45.0709 47.4068L48.3458 54.0305C48.4378 54.2167 48.6001 54.3587 48.7968 54.4253C48.9936 54.4918 49.2087 54.4775 49.3948 54.3854C49.581 54.2933 49.723 54.1309 49.7895 53.9341C49.856 53.7373 49.8417 53.5221 49.7496 53.3359L46.4747 46.7122C45.8518 45.493 45.6221 44.1106 45.8171 42.7554L46.1186 41.0681C46.3811 39.3691 46.0968 37.6306 45.3067 36.1039L43.2399 31.9238C49.1681 26.4564 52.3704 18.5856 52.5026 18.2522L52.5262 18.1939C52.5316 18.156 52.5341 18.1178 52.5337 18.0795C52.5423 18.0278 52.5457 17.9754 52.5437 17.9231C52.5486 17.8638 52.5465 17.8042 52.5375 17.7455V17.7455ZM29.1111 13.9491L23.1985 31.4398L19.1784 23.3088C22.2558 18.9314 26.6525 15.6083 29.1111 13.9491ZM20.0057 40.8964C18.2272 39.1371 14.4582 34.4824 16.5465 28.3047C16.9664 27.0884 17.513 25.9197 18.1773 24.8178L22.4913 33.5433L20.0057 40.8964Z" fill="#64D370"/>
</svg>
