<svg width="48" height="17" viewBox="0 0 48 17"  xmlns="http://www.w3.org/2000/svg">
<path d="M1.05953 16C0.766198 16 0.519531 15.9 0.319531 15.7C0.119531 15.5 0.0195313 15.2533 0.0195313 14.96V1.42C0.0195313 1.11333 0.119531 0.866666 0.319531 0.679999C0.519531 0.48 0.766198 0.38 1.05953 0.38C1.3662 0.38 1.61286 0.48 1.79953 0.679999C1.99953 0.866666 2.09953 1.11333 2.09953 1.42V7.16H4.15953L9.53953 0.719999C9.7262 0.493333 9.9662 0.38 10.2595 0.38C10.5662 0.366666 10.8129 0.466666 10.9995 0.679999C11.1862 0.893332 11.2729 1.12 11.2595 1.36C11.2595 1.58667 11.1662 1.80667 10.9795 2.02L5.91953 7.9L11.4995 14.38C11.6862 14.5933 11.7862 14.82 11.7995 15.06C11.8262 15.2867 11.7262 15.5133 11.4995 15.74C11.3129 15.9267 11.0595 16.0133 10.7395 16C10.4195 16 10.1662 15.8933 9.97953 15.68L4.23953 9H2.09953V14.96C2.09953 15.2533 1.99953 15.5 1.79953 15.7C1.61286 15.9 1.3662 16 1.05953 16ZM14.803 16.02C14.5096 16.02 14.2763 15.9267 14.103 15.74C13.9296 15.54 13.843 15.2933 13.843 15V6.08C13.843 5.77333 13.9296 5.52667 14.103 5.34C14.2763 5.15333 14.5096 5.06 14.803 5.06C15.1096 5.06 15.3563 5.15333 15.543 5.34C15.743 5.52667 15.843 5.77333 15.843 6.08V9.42H17.363L20.983 5.38C21.1563 5.19333 21.3963 5.08667 21.703 5.06C22.023 5.03333 22.2696 5.1 22.443 5.26C22.643 5.44667 22.7563 5.66 22.783 5.9C22.8096 6.12667 22.7363 6.33333 22.563 6.52L18.943 10.4L22.783 14.52C22.9563 14.6933 23.043 14.9 23.043 15.14C23.043 15.3667 22.9363 15.5733 22.723 15.76C22.5496 15.92 22.303 16 21.983 16C21.6763 15.9867 21.4363 15.8933 21.263 15.72L17.143 11.3H15.843V15C15.843 15.2933 15.743 15.54 15.543 15.74C15.3563 15.9267 15.1096 16.02 14.803 16.02ZM29.1061 16.08C28.1328 16.08 27.2594 15.84 26.4861 15.36C25.7128 14.8667 25.0994 14.2067 24.6461 13.38C24.2061 12.54 23.9861 11.5933 23.9861 10.54C23.9861 9.48667 24.2261 8.54 24.7061 7.7C25.1994 6.86 25.8594 6.2 26.6861 5.72C27.5261 5.22667 28.4661 4.98 29.5061 4.98C30.5461 4.98 31.4794 5.22667 32.3061 5.72C33.1328 6.2 33.7861 6.86 34.2661 7.7C34.7594 8.54 35.0061 9.48667 35.0061 10.54V15C35.0061 15.2933 34.9061 15.54 34.7061 15.74C34.5194 15.9267 34.2794 16.02 33.9861 16.02C33.6928 16.02 33.4461 15.9267 33.2461 15.74C33.0594 15.54 32.9661 15.2933 32.9661 15V14.26C32.4994 14.82 31.9328 15.2667 31.2661 15.6C30.6128 15.92 29.8928 16.08 29.1061 16.08ZM29.5061 14.28C30.1861 14.28 30.7928 14.12 31.3261 13.8C31.8594 13.4667 32.2794 13.02 32.5861 12.46C32.8928 11.8867 33.0461 11.2467 33.0461 10.54C33.0461 9.82 32.8928 9.18 32.5861 8.62C32.2794 8.04667 31.8594 7.6 31.3261 7.28C30.7928 6.94667 30.1861 6.78 29.5061 6.78C28.8394 6.78 28.2328 6.94667 27.6861 7.28C27.1528 7.6 26.7261 8.04667 26.4061 8.62C26.0994 9.18 25.9461 9.82 25.9461 10.54C25.9461 11.2467 26.0994 11.8867 26.4061 12.46C26.7261 13.02 27.1528 13.4667 27.6861 13.8C28.2328 14.12 28.8394 14.28 29.5061 14.28ZM42.1422 5.08C42.5555 5.08 42.8622 5.3 43.0622 5.74L47.1822 14.68C47.3022 14.9467 47.3155 15.1867 47.2222 15.4C47.1289 15.6 46.9689 15.7533 46.7422 15.86C46.1555 16.1267 45.7222 15.9933 45.4422 15.46L42.1822 8.06L38.8222 15.46C38.7022 15.7133 38.5222 15.88 38.2822 15.96C38.0555 16.0267 37.8022 15.9933 37.5222 15.86C37.2689 15.74 37.0889 15.58 36.9822 15.38C36.8889 15.18 36.9089 14.9467 37.0422 14.68L41.1822 5.74C41.3822 5.3 41.7022 5.08 42.1422 5.08Z"/>
</svg>
