<svg width="62" height="62" viewBox="0 0 62 62" fill="none" xmlns="http://www.w3.org/2000/svg">
<path d="M59.6969 31.3553C59.7669 31.1527 59.7716 30.9331 59.7105 30.7276C59.6494 30.522 59.5256 30.3408 59.3563 30.2092C59.187 30.0777 58.9808 30.0025 58.7666 29.9941C58.5524 29.9857 58.3409 30.0446 58.1619 30.1626C56.3571 31.3516 54.358 31.9055 51.8704 31.9055C45.2193 31.9055 39.8082 26.3615 39.8082 19.547C39.8082 14.4094 43.1242 9.56197 47.8719 7.75895C48.0711 7.68349 48.2419 7.54795 48.3606 7.3711C48.4793 7.19425 48.5401 6.98484 48.5346 6.77188C48.529 6.55892 48.4574 6.35296 48.3297 6.18253C48.2019 6.01209 48.0243 5.88562 47.8215 5.82063C45.9384 5.21616 43.7704 5.13464 41.8981 5.13464C31.3654 5.13464 22.7965 13.8875 22.7965 24.6462C22.7951 26.2657 22.9914 27.8794 23.3809 29.4513C22.122 28.9903 20.7919 28.7543 19.4513 28.7539C13.1466 28.7539 8.01785 33.8214 8.01785 40.0501C8.01841 40.9035 8.1184 41.754 8.31581 42.5842C6.28402 42.9134 4.4098 43.8812 2.9648 45.3474C1.19878 47.1227 0.208762 49.5263 0.211922 52.0308C0.211922 57.3159 4.56305 61.6155 9.91123 61.6155H42.0005C47.827 61.6155 52.5671 56.9319 52.5671 51.1751C52.5644 49.5904 52.1989 48.0274 51.4988 46.6059C50.7987 45.1843 49.7825 43.942 48.528 42.9742C53.7188 41.0323 57.8103 36.8213 59.6969 31.3553ZM50.514 51.1751C50.514 55.7993 46.6949 59.5616 42.0005 59.5616H9.91123C5.6951 59.5616 2.26507 56.1833 2.26507 52.0308C2.26318 50.067 3.04004 48.1825 4.42523 46.7909C5.81774 45.3802 7.70222 44.5636 9.68346 44.5124C9.84558 44.5076 10.0042 44.4645 10.1465 44.3865C10.2887 44.3085 10.4104 44.1979 10.5017 44.0638C10.5929 43.9297 10.6511 43.7758 10.6715 43.6148C10.6918 43.4539 10.6738 43.2904 10.6188 43.1378C10.2586 42.1481 10.0731 41.1033 10.0706 40.0501C10.0706 34.9539 14.2788 30.8077 19.4509 30.8077C23.3492 30.8077 26.8807 33.2338 28.2389 36.8437C28.2884 36.9754 28.3644 37.0955 28.4622 37.1965C28.56 37.2975 28.6775 37.3774 28.8075 37.4312C28.9374 37.4849 29.077 37.5114 29.2176 37.5089C29.3582 37.5064 29.4968 37.4751 29.6248 37.4169C30.5146 37.0091 31.4819 36.7981 32.4607 36.7982C35.6792 36.7982 38.4738 39.0501 39.1058 42.1528C39.16 42.4187 39.3172 42.6524 39.543 42.8027C39.7689 42.9531 40.0451 43.0079 40.3112 42.9551C40.8676 42.8446 41.4334 42.7887 42.0006 42.7882C46.6949 42.7885 50.514 46.5507 50.514 51.1751ZM46.1464 41.5734C44.481 40.8708 42.6645 40.6032 40.8674 40.7956C39.7076 37.2374 36.3167 34.7447 32.4605 34.7447C31.5409 34.7439 30.6268 34.8872 29.7514 35.1693C28.8813 33.3905 27.5618 31.8698 25.9236 30.7578C25.2094 28.7995 24.8459 26.7307 24.8497 24.6462C24.8497 15.0199 32.4976 7.18849 41.8981 7.18849C42.6889 7.18849 43.5342 7.20338 44.3738 7.27039C40.3689 9.94655 37.7551 14.6337 37.7551 19.547C37.7551 27.494 44.0872 33.9594 51.8704 33.9594C53.6487 33.9594 55.2212 33.712 56.6677 33.1948C54.4591 37.3672 50.6808 40.4086 46.1464 41.573V41.5734Z" fill="#64D370"/>
<path d="M53.5939 14.377C53.3216 14.377 53.0605 14.4852 52.868 14.6778C52.6755 14.8704 52.5673 15.1316 52.5673 15.4039V17.0599L50.8388 16.4835C50.7106 16.4393 50.5748 16.421 50.4394 16.4296C50.304 16.4382 50.1717 16.4736 50.0501 16.5337C49.9284 16.5938 49.8199 16.6774 49.7308 16.7797C49.6416 16.882 49.5736 17.0009 49.5307 17.1297C49.4878 17.2584 49.4708 17.3944 49.4808 17.5297C49.4907 17.6651 49.5274 17.7971 49.5887 17.9182C49.6499 18.0393 49.7346 18.147 49.8377 18.2352C49.9408 18.3233 50.0604 18.3902 50.1895 18.4318L51.9942 19.0336L50.6866 20.9957C50.611 21.1079 50.5583 21.2339 50.5315 21.3665C50.5047 21.4992 50.5044 21.6358 50.5305 21.7686C50.5567 21.9013 50.6088 22.0276 50.6839 22.1401C50.759 22.2527 50.8557 22.3493 50.9682 22.4243C51.0808 22.4994 51.207 22.5515 51.3398 22.5776C51.4725 22.6037 51.6091 22.6033 51.7416 22.5764C51.8742 22.5495 52.0002 22.4967 52.1123 22.4209C52.2244 22.3452 52.3204 22.248 52.3948 22.135L53.5939 20.336L54.7929 22.1352C54.9446 22.3602 55.1792 22.516 55.4454 22.5685C55.7116 22.621 55.9878 22.5659 56.2135 22.4153C56.4392 22.2648 56.5962 22.0309 56.6501 21.7649C56.704 21.4989 56.6504 21.2224 56.5011 20.9958L55.1935 19.0337L56.9983 18.432C57.254 18.3439 57.4647 18.1583 57.5845 17.9157C57.7043 17.673 57.7235 17.3929 57.6379 17.1362C57.5524 16.8795 57.369 16.6669 57.1276 16.5447C56.8862 16.4225 56.6064 16.4006 56.3489 16.4836L54.6205 17.0599V15.4039C54.6205 15.1316 54.5123 14.8704 54.3198 14.6778C54.1273 14.4852 53.8661 14.377 53.5939 14.377Z" fill="#64D370"/>
<path d="M3.29217 26.302L1.56368 25.7256C1.43541 25.6814 1.29966 25.6631 1.16427 25.6717C1.02888 25.6804 0.896546 25.7157 0.774909 25.7758C0.653272 25.8359 0.544747 25.9195 0.455607 26.0218C0.366466 26.1241 0.298479 26.2431 0.255574 26.3718C0.212669 26.5006 0.195699 26.6365 0.205642 26.7719C0.215586 26.9072 0.252248 27.0392 0.313507 27.1603C0.374767 27.2814 0.45941 27.3891 0.562544 27.4773C0.665678 27.5655 0.785257 27.6323 0.914369 27.674L2.71908 28.2757L1.41149 30.2378C1.33584 30.35 1.28311 30.476 1.25632 30.6087C1.22953 30.7413 1.22921 30.8779 1.25537 31.0107C1.28154 31.1434 1.33368 31.2697 1.40879 31.3823C1.4839 31.4948 1.58051 31.5914 1.69306 31.6665C1.80561 31.7415 1.93188 31.7936 2.06461 31.8197C2.19734 31.8458 2.33392 31.8454 2.4665 31.8185C2.59907 31.7916 2.72503 31.7388 2.83713 31.663C2.94923 31.5873 3.04526 31.4902 3.1197 31.3772L4.31874 29.5781L5.51778 31.3773C5.59222 31.4903 5.68825 31.5874 5.80035 31.6632C5.91245 31.7389 6.0384 31.7917 6.17098 31.8186C6.30355 31.8455 6.44013 31.8459 6.57287 31.8198C6.7056 31.7937 6.83187 31.7417 6.94442 31.6666C7.05697 31.5915 7.15357 31.4949 7.22869 31.3824C7.3038 31.2699 7.35594 31.1436 7.3821 31.0108C7.40827 30.878 7.40795 30.7414 7.38116 30.6088C7.35437 30.4761 7.30163 30.3501 7.22599 30.2379L5.91839 28.2759L7.72311 27.6741C7.97889 27.586 8.18956 27.4004 8.30934 27.1578C8.42912 26.9152 8.44832 26.635 8.36276 26.3783C8.27721 26.1216 8.09382 25.909 7.85245 25.7868C7.61109 25.6646 7.33126 25.6427 7.0738 25.7257L5.34531 26.302V24.6461C5.34531 24.3737 5.23715 24.1125 5.04463 23.9199C4.85211 23.7273 4.591 23.6191 4.31874 23.6191C4.04647 23.6191 3.78536 23.7273 3.59284 23.9199C3.40032 24.1125 3.29217 24.3737 3.29217 24.6461V26.302Z" fill="#64D370"/>
<path d="M7.85616 10.0966C8.08269 10.2477 8.35993 10.3026 8.62691 10.2492C8.89388 10.1958 9.12872 10.0385 9.27976 9.81193L10.4788 8.01275L11.6778 9.81193C11.8296 10.0369 12.0641 10.1927 12.3303 10.2452C12.5965 10.2977 12.8727 10.2427 13.0984 10.0921C13.3241 9.94153 13.4811 9.70769 13.535 9.44169C13.5889 9.1757 13.5354 8.89917 13.386 8.67255L12.0785 6.71049L13.8832 6.10871C14.1389 6.02061 14.3496 5.83507 14.4694 5.59244C14.5892 5.3498 14.6084 5.06967 14.5228 4.81295C14.4373 4.55624 14.2539 4.34367 14.0125 4.22148C13.7711 4.09928 13.4913 4.07732 13.2339 4.16038L11.5054 4.73661V3.0807C11.5054 2.80834 11.3972 2.54714 11.2047 2.35455C11.0122 2.16197 10.7511 2.05377 10.4788 2.05377C10.2065 2.05377 9.94542 2.16197 9.7529 2.35455C9.56038 2.54714 9.45223 2.80834 9.45223 3.0807V4.73661L7.72374 4.16025C7.46628 4.07719 7.18645 4.09915 6.94509 4.22135C6.70372 4.34355 6.52033 4.55611 6.43477 4.81283C6.34922 5.06955 6.36842 5.34967 6.4882 5.59231C6.60798 5.83494 6.81865 6.02048 7.07443 6.10858L8.87914 6.71036L7.57155 8.67255C7.42051 8.89916 7.36565 9.1765 7.41903 9.44356C7.4724 9.71063 7.62964 9.94555 7.85616 10.0966Z" fill="#64D370"/>
<path d="M58.7281 6.16158C59.2953 6.16158 59.755 5.70181 59.755 5.13465C59.755 4.5675 59.2953 4.10773 58.7281 4.10773C58.1609 4.10773 57.7012 4.5675 57.7012 5.13465C57.7012 5.70181 58.1609 6.16158 58.7281 6.16158Z" fill="#64D370"/>
<path d="M16.6368 21.5655C17.2039 21.5655 17.6637 21.1057 17.6637 20.5386C17.6637 19.9714 17.2039 19.5117 16.6368 19.5117C16.0696 19.5117 15.6099 19.9714 15.6099 20.5386C15.6099 21.1057 16.0696 21.5655 16.6368 21.5655Z" fill="#64D370"/>
<path d="M32.0367 2.05385C32.6038 2.05385 33.0636 1.59408 33.0636 1.02692C33.0636 0.45977 32.6038 0 32.0367 0C31.4695 0 31.0098 0.45977 31.0098 1.02692C31.0098 1.59408 31.4695 2.05385 32.0367 2.05385Z" fill="#64D370"/>
<path d="M60.7811 42.1038C61.3482 42.1038 61.808 41.644 61.808 41.0769C61.808 40.5097 61.3482 40.0499 60.7811 40.0499C60.2139 40.0499 59.7542 40.5097 59.7542 41.0769C59.7542 41.644 60.2139 42.1038 60.7811 42.1038Z" fill="#64D370"/>
</svg>
