<svg width="40" height="43" viewBox="0 0 40 43" xmlns="http://www.w3.org/2000/svg">
<path d="M20.268 21C19.02 21 17.902 20.714 16.914 20.142C15.926 19.5527 15.1373 18.764 14.548 17.776C13.976 16.788 13.69 15.67 13.69 14.422C13.69 14.1793 13.7593 13.9887 13.898 13.85C14.054 13.694 14.2447 13.616 14.47 13.616C14.6953 13.616 14.886 13.694 15.042 13.85C15.198 13.9887 15.276 14.1793 15.276 14.422C15.276 15.358 15.4927 16.2073 15.926 16.97C16.3767 17.7153 16.9747 18.3133 17.72 18.764C18.4827 19.1973 19.332 19.414 20.268 19.414C21.2213 19.414 22.0707 19.1973 22.816 18.764C23.5613 18.3133 24.1507 17.7153 24.584 16.97C25.0347 16.2073 25.26 15.358 25.26 14.422C25.26 13.4687 25.0347 12.6193 24.584 11.874C24.1507 11.1113 23.5613 10.5133 22.816 10.08C22.0707 9.62933 21.2213 9.404 20.268 9.404H15.536C15.3107 9.404 15.12 9.33467 14.964 9.196C14.8253 9.04 14.756 8.84933 14.756 8.624V1.448C14.756 1.22267 14.8253 1.04067 14.964 0.901998C15.12 0.745998 15.3107 0.667998 15.536 0.667998H25C25.2253 0.667998 25.416 0.745998 25.572 0.901998C25.728 1.04067 25.806 1.22267 25.806 1.448C25.806 1.67333 25.728 1.864 25.572 2.02C25.416 2.176 25.2253 2.254 25 2.254H16.316V7.844H20.268C21.516 7.844 22.634 8.13 23.622 8.702C24.61 9.274 25.39 10.0627 25.962 11.068C26.5513 12.056 26.846 13.174 26.846 14.422C26.846 15.67 26.5513 16.788 25.962 17.776C25.39 18.764 24.61 19.5527 23.622 20.142C22.634 20.714 21.516 21 20.268 21Z" />
<path d="M38.9453 25H8.42539C8.1018 25 7.83945 25.3242 7.83945 25.724C7.83945 26.1238 8.1018 26.448 8.42539 26.448H38.8281V29.2307H1.17188V26.448H6.08164C6.40523 26.448 6.66758 26.1238 6.66758 25.724C6.66758 25.3242 6.40523 25 6.08164 25H1.05469C0.473125 25 0 25.5846 0 26.3032V29.3755C0 30.0941 0.473125 30.6787 1.05469 30.6787H1.88102V41.552C1.88102 42.2706 2.35414 42.8552 2.9357 42.8552H4.94727C5.52883 42.8552 6.00195 42.2706 6.00195 41.552C6.00195 41.552 6.00195 36.1431 6.00195 34.429C6.00195 32.7149 6.00195 32.981 6.00195 32.981C6.00195 31.533 6.00195 30.6787 6.00195 30.6787H33.7469C33.7469 30.6787 33.7469 31.9618 33.7469 32.981C33.7469 34.0002 33.7468 34.0006 33.7468 34.429C33.7468 34.8573 33.7468 41.6968 33.7468 41.6968C33.7468 42.4154 34.2199 43 34.8015 43H36.813C37.3945 43 37.8677 42.4154 37.8677 41.6968V30.6788H38.9453C39.5269 30.6788 40 30.0942 40 29.3756V26.3033C40 25.5846 39.5269 25 38.9453 25ZM4.83008 41.4073H3.05289V30.6788H4.83008V41.4073ZM36.6959 41.552H34.9188V30.6788H36.6959V41.552Z"/>
</svg>
