<?xml version="1.0" encoding="utf-8"?><svg viewBox="0 0 1374 1374" xmlns="http://www.w3.org/2000/svg" xmlns:xlink="http://www.w3.org/1999/xlink"><style>:root>svg{display:none}:root>svg:target{display:block}</style><svg viewBox="0 0 8.54 14.88" id="icons--arrow-right" xmlns="http://www.w3.org/2000/svg"><path d="M8.707 8.707a1 1 0 000-1.414L2.343.929A1 1 0 00.93 2.343L6.586 8 .929 13.657a1 1 0 101.414 1.414l6.364-6.364zM7 9h1V7H7v2z"/></svg><svg fill="none" viewBox="0 0 9 16" id="icons--arrow-right-green" xmlns="http://www.w3.org/2000/svg"><path d="M8.707 8.707a1 1 0 000-1.414L2.343.929A1 1 0 00.93 2.343L6.586 8 .929 13.657a1 1 0 101.414 1.414l6.364-6.364zM7 9h1V7H7v2z" fill="#64D370"/></svg><svg fill="none" viewBox="0 0 9 16" id="icons--arrow-right-grey" xmlns="http://www.w3.org/2000/svg"><path d="M8.707 8.707a1 1 0 000-1.414L2.343.929A1 1 0 00.93 2.343L6.586 8 .929 13.657a1 1 0 101.414 1.414l6.364-6.364zM7 9h1V7H7v2z" fill="#B5C2CE"/></svg><svg fill="none" viewBox="0 0 9 16" id="icons--arrow-right-white" xmlns="http://www.w3.org/2000/svg"><path d="M8.707 8.707a1 1 0 000-1.414L2.343.929A1 1 0 00.93 2.343L6.586 8 .929 13.657a1 1 0 101.414 1.414l6.364-6.364zM7 9h1V7H7v2z" fill="#F5FAFF"/></svg><svg viewBox="0 0 38 55" id="icons--bottle" xmlns="http://www.w3.org/2000/svg"><path d="M9.492 19.928a.61.61 0 00.355-.787l-.072-.19a.61.61 0 00-1.141.432l.072.19a.61.61 0 00.786.355zM13.74 31.149a.61.61 0 00.354-.787l-3.312-8.748a.61.61 0 10-1.14.432l3.31 8.748a.61.61 0 00.787.355z"/><path d="M21.282 53.95l13.313-5.04a2.647 2.647 0 001.536-3.408L23.462 12.031a4.276 4.276 0 00-5.313-2.55l-.65-1.716.38-.144a.61.61 0 00.355-.786l-1.152-3.043a2.647 2.647 0 00-3.408-1.536L6.067 5.135a2.647 2.647 0 00-1.536 3.408l1.151 3.043a.61.61 0 00.787.354l.38-.144.65 1.717a4.275 4.275 0 00-2.294 5.428l12.67 33.472a2.647 2.647 0 003.407 1.536zM5.672 8.11a1.425 1.425 0 01.827-1.835l7.607-2.88a1.425 1.425 0 011.835.828l.936 2.472-10.27 3.887-.935-2.472zm10.686.086l.648 1.712-8.368 3.167-.648-1.712 8.368-3.167zM6.346 18.51a3.054 3.054 0 011.773-3.933l10.27-3.887a3.054 3.054 0 013.932 1.773l3.22 8.508-8.404 3.181a.61.61 0 00-.355.787l.984 2.599a.61.61 0 001.14-.432l-.767-2.028 7.835-2.966 5.335 14.096-7.835 2.966-2.768-7.314a.61.61 0 00-1.14.432l2.983 7.884a.61.61 0 00.787.355l8.405-3.182 3.25 8.585a1.425 1.425 0 01-.828 1.835L20.85 52.81a1.425 1.425 0 01-1.836-.828L6.346 18.51z"/></svg><svg viewBox="0 0 48 63" id="icons--carrot" xmlns="http://www.w3.org/2000/svg"><mask id="fa" fill="#fff"><path d="M26.736 7.805a5.752 5.752 0 00-4.207-1.39 5.75 5.75 0 00-3.44 1.457 5.801 5.801 0 00-6.957-1.557 5.8 5.8 0 00-3.199 6.37 5.75 5.75 0 00-3.307 1.74 5.752 5.752 0 00-1.588 4.136 5.748 5.748 0 001.803 4.048c.382.361 1.222.876 4.558 1.944 1.213.389 2.433.746 3.334 1.003a10.05 10.05 0 00.219 8.12c1.305 2.755 5.386 8.988 9.703 14.256 2.41 2.94 4.57 5.197 6.42 6.708 2.5 2.041 4.431 2.694 5.904 1.996 1.474-.698 2.191-2.606 2.194-5.833.002-2.389-.377-5.49-1.127-9.217-1.343-6.677-3.583-13.782-4.888-16.537a10.05 10.05 0 00-6.147-5.311c.372-.86.868-2.032 1.335-3.216 1.285-3.258 1.42-4.234 1.381-4.759a5.748 5.748 0 00-1.99-3.958zm-13.672.476a3.619 3.619 0 014.815 1.716c.616 1.3 1.44 6.329 1.991 9.808a10.137 10.137 0 00-2.174 1.027c-2.575-2.88-5.756-6.479-6.353-7.738a3.619 3.619 0 011.72-4.813zM7.338 21.03a3.587 3.587 0 01-1.125-2.526 3.591 3.591 0 01.991-2.583 3.59 3.59 0 012.616-1.128c1.027 1.574 3.245 4.118 6.167 7.391-.442.436-.84.91-1.19 1.412-4.332-1.209-7.022-2.2-7.46-2.566zm22.854 4.95c1.25 2.639 3.411 9.52 4.722 16.035 1.844 9.166.951 12.268.134 12.655-.725.344-3.137-.618-7.8-5.873l3.043-1.442a1.088 1.088 0 10-.932-1.966l-3.58 1.697a82.808 82.808 0 01-.441-.533c-4.213-5.14-8.17-11.17-9.42-13.808-1.866-3.936-.181-8.655 3.754-10.52 3.936-1.865 8.655-.18 10.52 3.755zm-3.635-14.068c.007.58-.93 3.29-2.736 7.408a10.014 10.014 0 00-1.822.024c-.648-4.082-1.248-7.588-1.84-9.45a3.59 3.59 0 012.53-1.31 3.591 3.591 0 012.626.868 3.58 3.58 0 011.242 2.46z"/></mask><path d="M26.736 7.805a5.752 5.752 0 00-4.207-1.39 5.75 5.75 0 00-3.44 1.457 5.801 5.801 0 00-6.957-1.557 5.8 5.8 0 00-3.199 6.37 5.75 5.75 0 00-3.307 1.74 5.752 5.752 0 00-1.588 4.136 5.748 5.748 0 001.803 4.048c.382.361 1.222.876 4.558 1.944 1.213.389 2.433.746 3.334 1.003a10.05 10.05 0 00.219 8.12c1.305 2.755 5.386 8.988 9.703 14.256 2.41 2.94 4.57 5.197 6.42 6.708 2.5 2.041 4.431 2.694 5.904 1.996 1.474-.698 2.191-2.606 2.194-5.833.002-2.389-.377-5.49-1.127-9.217-1.343-6.677-3.583-13.782-4.888-16.537a10.05 10.05 0 00-6.147-5.311c.372-.86.868-2.032 1.335-3.216 1.285-3.258 1.42-4.234 1.381-4.759a5.748 5.748 0 00-1.99-3.958v0zm-13.672.476a3.619 3.619 0 014.815 1.716c.616 1.3 1.44 6.329 1.991 9.808a10.137 10.137 0 00-2.174 1.027c-2.575-2.88-5.756-6.479-6.353-7.738a3.619 3.619 0 011.72-4.813v0zM7.338 21.03a3.587 3.587 0 01-1.125-2.526 3.591 3.591 0 01.991-2.583 3.59 3.59 0 012.616-1.128c1.027 1.574 3.245 4.118 6.167 7.391-.442.436-.84.91-1.19 1.412-4.332-1.209-7.022-2.2-7.46-2.566v0zm22.854 4.95c1.25 2.639 3.411 9.52 4.722 16.035 1.844 9.166.951 12.268.134 12.655-.725.344-3.137-.618-7.8-5.873l3.043-1.442a1.088 1.088 0 10-.932-1.966l-3.58 1.697a82.808 82.808 0 01-.441-.533c-4.213-5.14-8.17-11.17-9.42-13.808-1.866-3.936-.181-8.655 3.754-10.52 3.936-1.865 8.655-.18 10.52 3.755v0zm-3.635-14.068c.007.58-.93 3.29-2.736 7.408a10.014 10.014 0 00-1.822.024c-.648-4.082-1.248-7.588-1.84-9.45a3.59 3.59 0 012.53-1.31 3.591 3.591 0 012.626.868 3.58 3.58 0 011.242 2.46v0z" stroke="#F5FAFF" mask="url(#fa)"/><mask id="fb" fill="#fff"><path d="M22.974 29.338a1.088 1.088 0 00-1.449-.517l-3.477 1.648a1.088 1.088 0 10.931 1.965l3.478-1.647c.543-.258.774-.906.517-1.45z"/></mask><path d="M22.974 29.338a1.088 1.088 0 00-1.449-.517l-3.477 1.648a1.088 1.088 0 10.931 1.965l3.478-1.647c.543-.258.774-.906.517-1.45z" stroke="#F5FAFF" mask="url(#fb)"/><mask id="fc" fill="#fff"><path d="M30.131 33.532l-5.564 2.637a1.088 1.088 0 00.931 1.965l5.565-2.637a1.088 1.088 0 00-.932-1.965z"/></mask><path d="M30.131 33.532l-5.564 2.637a1.088 1.088 0 00.931 1.965l5.565-2.637a1.088 1.088 0 00-.932-1.965z" stroke="#F5FAFF" mask="url(#fc)"/></svg><svg fill="none" viewBox="0 0 67.64 67.67" id="icons--clock" xmlns="http://www.w3.org/2000/svg"><path d="M34.136 67.917C15.486 67.917.313 52.74.313 34.084.313 15.427 15.486.25 34.135.25c18.65 0 33.822 15.177 33.822 33.834 0 18.656-15.172 33.833-33.821 33.833zm0-63.907C17.558 4.01 4.072 17.5 4.072 34.084c0 16.583 13.486 30.073 30.064 30.073 16.577 0 30.062-13.49 30.062-30.073C64.198 17.5 50.713 4.01 34.136 4.01z" fill="#64D370" stroke="#E5E5E5" stroke-width=".5"/><path d="M47.715 51.745v-.001L32.807 36.832a1.88 1.88 0 01-.552-1.328V15.621a1.88 1.88 0 013.76 0v19.103l.073.073L50.37 49.084a1.881 1.881 0 010 2.66h0a1.863 1.863 0 01-1.329.552c-.482 0-.962-.183-1.327-.551z" fill="#64D370" stroke="#E5E5E5" stroke-width=".5"/></svg><svg fill="none" viewBox="0 0 100 69" id="icons--delivery" xmlns="http://www.w3.org/2000/svg"><path d="M71.364 28.76v.1H84.536c4.09 0 7.85 2.025 10.063 5.415l.084-.055-.084.055 5.054 7.736.084-.054-.084.054c.157.24.242.524.242.813v17.649c0 .82-.664 1.486-1.485 1.486h-5.42l-.018.077c-.892 3.835-4.33 6.705-8.431 6.705-4.1 0-7.539-2.87-8.431-6.705l-.018-.077H45.438l-.018.077c-.891 3.835-4.328 6.705-8.43 6.705-4.102 0-7.54-2.87-8.432-6.705l-.018-.077H14.403c-.82 0-1.485-.665-1.485-1.486v-1.565c0-3.205 1.935-5.96 4.695-7.177l.06-.026v-7.188H1.723a1.485 1.485 0 110-2.972h15.95v-3.37H11.233a1.485 1.485 0 010-2.971H17.672V31.831H1.723a1.485 1.485 0 110-2.972H15.14l-.274-.183c-4.15-2.771-6.89-7.494-6.89-12.847C7.977 7.316 14.902.388 23.414.388c7.517 0 13.789 5.408 15.153 12.536l.016.08h24.553c4.538 0 8.228 3.692 8.228 8.231v7.525zM20.743 44.517h-.1v6.544h.1l.023-.002h47.628V21.235c0-2.9-2.358-5.26-5.257-5.26H38.84l-.002.1c-.083 5.25-2.792 9.873-6.877 12.602l-.274.183h9.661a1.486 1.486 0 010 2.972H20.643v3.371h11.196a1.485 1.485 0 010 2.971H20.643v3.371h3.27a1.485 1.485 0 110 2.972h-3.17zm47.551 14.47h.1V54.03H43.18l.156.168a8.63 8.63 0 012.228 4.702l.011.087H68.294zm-37.65-4.79l.155-.167H20.763a4.883 4.883 0 00-4.876 4.856v.1H28.405l.012-.086a8.628 8.628 0 012.226-4.702zm66.18 4.79h.1V43.266l-.016-.025-4.795-7.341c-1.664-2.548-4.497-4.068-7.577-4.068H71.364v27.155h4.592l.011-.087c.578-4.222 4.198-7.49 8.574-7.49 4.376 0 7.997 3.268 8.573 7.49l.012.087H96.825zM23.415 3.359c-6.874 0-12.467 5.595-12.467 12.47 0 6.877 5.593 12.472 12.467 12.472 6.874 0 12.466-5.595 12.466-12.471S30.288 3.359 23.414 3.359zm7.883 56.717a5.7 5.7 0 005.692 5.694 5.7 5.7 0 005.693-5.694 5.7 5.7 0 00-5.693-5.694 5.7 5.7 0 00-5.692 5.694zm47.551 0a5.7 5.7 0 005.693 5.694 5.7 5.7 0 005.692-5.694 5.7 5.7 0 00-5.692-5.694 5.7 5.7 0 00-5.693 5.694z" fill="#64D370" stroke="#E5E5E5" stroke-width=".2"/><path d="M22.427 15.345l-.019.027-3.235 4.439h0a1.483 1.483 0 00.324 2.074h0a1.481 1.481 0 002.075-.325h0l3.54-4.855-2.685-1.36zm0 0v-.032m0 .032v-.032m0 0v-6.42a1.484 1.484 0 112.97 0v6.937m-2.97-.517l2.97.517m0 0c0 .315-.1.621-.284.875l.284-.875zM93.946 43.718h0a2.622 2.622 0 01-.008 2.646 2.628 2.628 0 01-2.296 1.324H80.974c-.82 0-1.485-.665-1.485-1.486V35.103c0-.821.664-1.486 1.485-1.486h3.032a7.202 7.202 0 016.239 3.62l3.701 6.481zm-11.486.899v.1h8.635l-.085-.15-3.344-5.854s0 0 0 0a4.22 4.22 0 00-3.66-2.124H82.46v8.028z" fill="#64D370" stroke="#E5E5E5" stroke-width=".2"/></svg><svg fill="none" viewBox="0 0 67 67" id="icons--dish" xmlns="http://www.w3.org/2000/svg"><path d="M60.336 45.423L45.33 54.316l-5.716-3.613h7.187a4.147 4.147 0 004.147-4.149 4.15 4.15 0 00-4.147-4.149H34.456a11.453 11.453 0 00-4.155.755l-9.599 4.36v-.966a1.132 1.132 0 00-1.131-1.131h-8.295a1.13 1.13 0 00-1.131 1.131v18.858a1.132 1.132 0 001.131 1.132h8.295a1.131 1.131 0 001.131-1.132v-1.131h23.444a7.027 7.027 0 004.133-1.335L64.31 51.457a3.644 3.644 0 00-3.974-6.034zM18.44 64.28h-6.033V47.686h6.033V64.28zm44.558-14.627l-16.04 11.459a4.787 4.787 0 01-2.812.905H20.702V50l10.467-4.73a9.145 9.145 0 013.287-.603h12.345a1.885 1.885 0 010 3.772H35.708a1.131 1.131 0 00-.603 2.09l9.6 6.034a1.131 1.131 0 001.183 0l15.61-9.27a1.38 1.38 0 011.508 2.308l-.008.052zM65.57 36.37h-2.64a29.085 29.085 0 00-7.505-18.714 29.066 29.066 0 00-17.87-9.332A4.904 4.904 0 0031.237.941a4.902 4.902 0 00-.987 7.383 29.059 29.059 0 00-17.876 9.328A29.077 29.077 0 004.867 36.37H1.473a1.131 1.131 0 000 2.263H65.57a1.13 1.13 0 100-2.263zM33.899 2.425a2.639 2.639 0 011.866 4.508 2.64 2.64 0 11-1.866-4.508zm0 7.921a26.787 26.787 0 0118.66 7.581 26.805 26.805 0 018.11 18.443H7.128a26.806 26.806 0 018.109-18.443 26.787 26.787 0 0118.66-7.581z" fill="#64D370"/><path d="M27.819 15.71a22.212 22.212 0 00-14.177 12.197 1.132 1.132 0 102.059.92 19.967 19.967 0 0112.736-10.938 1.131 1.131 0 00.58-1.793 1.133 1.133 0 00-1.198-.387z" fill="#64D370"/></svg><svg fill="none" viewBox="0 0 51 65" id="icons--eco" xmlns="http://www.w3.org/2000/svg"><path d="M8.72 53.37l.78.14c.19.035 2.12.368 4.776.368 3.974 0 9.574-.746 13.4-4.358 6.385-6.026 5.097-17.438 5.04-17.921l-.095-.787-.78-.14c-.478-.086-11.792-2.034-18.177 3.991C7.28 40.69 8.568 52.102 8.626 52.584l.094.787zm17.487-5.408c-4.06 3.833-10.775 3.924-14.191 3.679l9.587-9.05 7.127 1.85c-.63 1.298-1.451 2.51-2.523 3.52zm3.33-5.523l-6.095-1.582 7.261-6.854c.028 2.069-.136 5.331-1.165 8.436zm-.392-9.91L17.156 43.846l-1.588-8.011c4.018-3.39 10.233-3.525 13.577-3.305zm-15.373 5.253l1.545 7.798L10.636 50c-.024-3.034.38-8.398 3.136-12.218z" fill="#64D370"/><path d="M43.43 11.231c0-2.764-1.075-5.363-3.03-7.318A10.271 10.271 0 0033.084.881c-.861 0-1.717.107-2.544.317l.528 2.076a8.18 8.18 0 012.016-.251c2.193 0 4.254.854 5.802 2.404a8.156 8.156 0 012.404 5.804v8.162H31.015v-8.161c0-5.707-4.641-10.35-10.346-10.35s-10.347 4.643-10.347 10.35v8.16H.404v39.759c0 2.952 2.4 5.353 5.352 5.353H45.57a5.358 5.358 0 005.352-5.353V19.393h-7.492V11.23zm-30.967 0c0-4.525 3.681-8.208 8.206-8.208 4.524 0 8.206 3.683 8.206 8.209v8.16h-3.996v-8.16c0-1.009.18-1.991.535-2.92l-1.999-.765a10.266 10.266 0 00-.677 3.684v8.162H12.463v-8.161zm26.33 47.92a3.215 3.215 0 01-3.211 3.212H5.756c-1.771 0-3.211-1.441-3.211-3.212V21.534h36.248v37.617zm6.778 3.212h-3.86l3.147-5.486 2.735 4.767a3.193 3.193 0 01-2.022.719zm-1.783-40.829v6.067h2.14v-6.067h2.854v37.617c0 .083-.004.165-.01.246l-2.844-4.957V30.457h-2.14V54.44l-2.862 4.989c.005-.093.007-.185.007-.278V21.534h2.855z" fill="#64D370"/></svg><svg fill="none" viewBox="0 0 70 68" id="icons--exchange" xmlns="http://www.w3.org/2000/svg"><path d="M63.566 14.933h3.1a1.33 1.33 0 000-2.662h-5.81a1.33 1.33 0 00-1.331 1.331v5.813a1.33 1.33 0 102.661 0v-1.652c7.045 12.12 5.172 27.902-4.94 38.018a31.365 31.365 0 01-33.942 6.933 1.33 1.33 0 10-.993 2.47 34.025 34.025 0 0036.817-7.52 34.095 34.095 0 004.438-42.73zM8.703 47.11a1.33 1.33 0 00-1.33 1.332v1.894C.122 38.177 1.94 22.219 12.135 12.02A31.335 31.335 0 0146.26 5.16a1.33 1.33 0 101.009-2.462A34.046 34.046 0 0027.893.769a33.886 33.886 0 00-17.64 9.368 34.091 34.091 0 00-4.32 42.907H2.771a1.33 1.33 0 000 2.663h5.932a1.33 1.33 0 001.33-1.331v-5.934a1.33 1.33 0 00-1.33-1.331zM31.528 28.85a.783.783 0 00-.355 1.05l4.398 8.894a.783.783 0 101.404-.694l-4.398-8.895a.782.782 0 00-1.049-.355zM40.719 36.248l-4.398-8.895a.783.783 0 10-1.404.695l4.398 8.895a.783.783 0 101.404-.695z" fill="#64D370"/><path d="M52.538 17.745a.523.523 0 00-.13-.262.749.749 0 00-.098-.114.775.775 0 00-.13-.087.731.731 0 00-.096-.064l-.063-.021c-.468-.112-10.468-2.82-19.05-.351a41.599 41.599 0 00-1.686-5.05l-.014-.028-.026-.052a.803.803 0 00-.062-.126.763.763 0 00-.163-.14l-.014-.029a.767.767 0 00-.193-.085.78.78 0 00-.192-.022l-.028.014a.807.807 0 00-.191.037l-.192.095a44.542 44.542 0 00-6.312 4.538c-3.079 2.63-7.11 6.822-8.806 11.85-2.917 8.626 4.372 14.732 4.795 15.07l.016.033c.041.03.085.055.13.075l.073.029.126.03.08.008.037-.018a16.408 16.408 0 006.446-1.652 13.16 13.16 0 003.956-2.953l1.921 3.885a8.099 8.099 0 003.442 3.64l1.533.803a6.615 6.615 0 012.744 2.924l3.275 6.624a.783.783 0 101.404-.695l-3.275-6.624a8.099 8.099 0 00-3.442-3.64l-1.523-.784a6.616 6.616 0 01-2.754-2.943l-5.242-10.602a.783.783 0 10-1.404.694l2.564 5.187c-2.615 3.24-6.571 4.178-8.506 4.447l9.115-26.94a43.024 43.024 0 012.201 10.342.784.784 0 101.563-.115 40.454 40.454 0 00-.988-6.31c6.762-1.965 14.72-.466 17.327.131-.978 2.11-3.804 7.761-8.19 11.965L40.065 25.5a.783.783 0 10-1.404.695l5.242 10.602a6.624 6.624 0 01.667 3.976l-.302 1.687a8.107 8.107 0 00.803 4.946l3.275 6.624a.783.783 0 101.404-.695l-3.275-6.624a6.624 6.624 0 01-.658-3.957l.302-1.687a8.107 8.107 0 00-.812-4.964l-2.067-4.18c5.928-5.468 9.13-13.338 9.263-13.672l.023-.058a.755.755 0 00.008-.114.773.773 0 00.01-.157.76.76 0 00-.006-.177zM29.11 13.95l-5.913 17.49-4.02-8.13c3.078-4.378 7.474-7.7 9.933-9.36zm-9.105 26.947c-1.779-1.759-5.548-6.414-3.46-12.591.42-1.217.967-2.385 1.631-3.487l4.314 8.725-2.485 7.353z" fill="#64D370"/></svg><svg viewBox="0 0 39.3 39.14" id="icons--fish" xmlns="http://www.w3.org/2000/svg"><path d="M31.036 14.905c-.658 0-1.152.524-1.152 1.152a1.152 1.152 0 101.152-1.152zM7.278 11.103c-.599 0-1.048.478-1.048 1.032s.45 1.033 1.048 1.033c.568 0 1.032-.464 1.032-1.033s-.464-1.032-1.032-1.032z"/><path d="M39.336 23.264v.003a.957.957 0 01-.132.639c-.157.257-.355.338-.762.503l-.016.007h0l-.004.002c-4.745 2.033-10.77 1.583-15.878.568-4.757-.957-8.445-2.367-8.951-2.56l-.047-.017c-1.456-.56-2.864-.729-4.205-.496-1.342.234-2.602.867-3.769 1.888-1.287 1.118-2.126 2.432-2.535 3.129l-.076.128.078.128c1.58 2.61 3.84 4.007 6.728 4.115h.001a11.2 11.2 0 003.059-.347c.393-.1.714-.202.938-.281a6.7 6.7 0 00.361-.14l.01-.005a.898.898 0 011.23.66h0c.533 2.793.18 4.871-.992 6.255-1.332 1.56-3.255 1.633-3.55 1.633a.908.908 0 01-.471-.13c-.152-.09-2.04-1.242-4.107-3.252-2.077-2.019-4.315-4.886-5.175-8.398-1-4.086-.267-8.724 2.861-12.944h0a.897.897 0 011.358-.092.89.89 0 01.081 1.17v.002c-2.281 3.1-2.877 6.132-2.892 8.376l-.005.7.447-.539c1.618-1.949 3.461-3.147 5.383-3.665 1.922-.517 3.939-.36 5.913.43.083.034 3.885 1.521 8.754 2.483l.466.092-.189-.437c-1.14-2.642-1.638-5.273-1.3-7.677.337-2.397 1.508-4.584 3.74-6.347l.392-.31-.483-.128c-2.127-.562-4.415-.698-6.637-.531-1.857.136-4.022.528-5.773 1.213h-.001c-.739.293-1.442.676-2.274 1.22h0l-.002.002c-.03.02-.058.037-.09.056l-.034.02a1.435 1.435 0 00-.141.096.886.886 0 01-1.126-.11h0l-.002-.003a.891.891 0 01.13-1.38s0 0 0 0l.267-.177s0 0 0 0c1.591-1.046 2.97-1.678 5.258-2.18l.328-.072-.163-.293c-.688-1.235-1.88-2.633-4.667-3.265h0l-.006-.001c-.877-.175-.995-1.415-.101-1.734 3.755-1.3 7.552-1.33 10.71.925h0c1.78 1.27 2.865 2.953 3.454 4.1l.055.11.12.022c8.529 1.65 13.113 8.181 14.434 16.836zM17.257 6.096l.078.164.18-.024a24.096 24.096 0 014.531-.163l.53.032-.313-.429c-1.338-1.83-3.733-3.792-7.689-3.468l-.7.057.579.398c1.578 1.086 2.333 2.446 2.804 3.433zm-3.46 26.778l-.023-.303-.292.08c-2.384.647-4.93.658-7.202-.275l-.286.392c1.967 2.346 4.203 3.932 4.992 4.448l.08.052.094-.014c.429-.063 1.264-.272 1.875-.999l.002-.002c.628-.76.866-1.93.76-3.38zm11.77-9.32l.06.112.126.017c3.68.51 7.98.607 11.51-.747l.196-.075-.04-.205c-1.085-5.76-3.78-10.788-9.117-13.273l-.12-.056-.114.068c-2.152 1.282-3.548 2.945-4.122 4.98-1.002 3.527.63 7.332 1.62 9.178z" stroke="#F5FAFF" stroke-width=".5"/></svg><svg fill="none" viewBox="0 0 1374 1374" id="icons--greenellipse" xmlns="http://www.w3.org/2000/svg"><g filter="url(#mfilter0_d_739_3107)"><circle cx="686.941" cy="686.941" r="646.941" fill="#64D370"/></g><defs><filter id="mfilter0_d_739_3107" x="0" y="0" width="1373.88" height="1373.88" filterUnits="userSpaceOnUse" color-interpolation-filters="sRGB"><feFlood flood-opacity="0" result="BackgroundImageFix"/><feColorMatrix in="SourceAlpha" values="0 0 0 0 0 0 0 0 0 0 0 0 0 0 0 0 0 0 127 0" result="hardAlpha"/><feOffset/><feGaussianBlur stdDeviation="20"/><feColorMatrix values="0 0 0 0 0.337255 0 0 0 0 0.337255 0 0 0 0 0.337255 0 0 0 0.4 0"/><feBlend in2="BackgroundImageFix" result="effect1_dropShadow_739_3107"/><feBlend in="SourceGraphic" in2="effect1_dropShadow_739_3107" result="shape"/></filter></defs></svg><svg fill="none" viewBox="0 0 521 521" id="icons--greenellipse2" xmlns="http://www.w3.org/2000/svg"><circle cx="260.317" cy="260.318" r="244.743" transform="rotate(-19.057 260.317 260.318)" stroke="#64D370" stroke-opacity=".5" stroke-width="30"/></svg><svg fill="none" viewBox="0 0 546 546" id="icons--greenellipse3" xmlns="http://www.w3.org/2000/svg"><circle cx="273.224" cy="273.224" r="272.252" transform="rotate(-19.057 273.224 273.224)" fill="#26F03A" fill-opacity=".1"/></svg><svg viewBox="0 0 48 17" id="icons--kkal" xmlns="http://www.w3.org/2000/svg"><path d="M1.06 16c-.294 0-.54-.1-.74-.3-.2-.2-.3-.447-.3-.74V1.42c0-.307.1-.553.3-.74.2-.2.446-.3.74-.3.306 0 .553.1.74.3.2.187.3.433.3.74v5.74h2.06L9.54.72a.89.89 0 01.72-.34c.306-.013.553.087.74.3.186.213.273.44.26.68 0 .227-.094.447-.28.66L5.92 7.9l5.58 6.48c.186.213.286.44.3.68.026.227-.074.453-.3.68-.187.187-.44.273-.76.26-.32 0-.574-.107-.76-.32L4.24 9H2.1v5.96c0 .293-.1.54-.3.74-.187.2-.434.3-.74.3zm13.743.02c-.293 0-.527-.093-.7-.28a1.09 1.09 0 01-.26-.74V6.08c0-.307.087-.553.26-.74.173-.187.407-.28.7-.28.307 0 .553.093.74.28.2.187.3.433.3.74v3.34h1.52l3.62-4.04c.173-.187.413-.293.72-.32.32-.027.567.04.74.2.2.187.313.4.34.64.027.227-.047.433-.22.62l-3.62 3.88 3.84 4.12c.173.173.26.38.26.62 0 .227-.107.433-.32.62-.173.16-.42.24-.74.24-.307-.013-.547-.107-.72-.28l-4.12-4.42h-1.3V15c0 .293-.1.54-.3.74-.187.187-.433.28-.74.28zm14.303.06c-.973 0-1.847-.24-2.62-.72a5.365 5.365 0 01-1.84-1.98c-.44-.84-.66-1.787-.66-2.84s.24-2 .72-2.84a5.422 5.422 0 011.98-1.98c.84-.493 1.78-.74 2.82-.74 1.04 0 1.973.247 2.8.74.827.48 1.48 1.14 1.96 1.98.493.84.74 1.787.74 2.84V15c0 .293-.1.54-.3.74a.975.975 0 01-.72.28c-.293 0-.54-.093-.74-.28-.187-.2-.28-.447-.28-.74v-.74a5.23 5.23 0 01-1.7 1.34c-.653.32-1.373.48-2.16.48zm.4-1.8c.68 0 1.287-.16 1.82-.48a3.58 3.58 0 001.26-1.34c.307-.573.46-1.213.46-1.92 0-.72-.153-1.36-.46-1.92a3.393 3.393 0 00-1.26-1.34c-.533-.333-1.14-.5-1.82-.5-.667 0-1.273.167-1.82.5-.533.32-.96.767-1.28 1.34-.307.56-.46 1.2-.46 1.92 0 .707.153 1.347.46 1.92a3.74 3.74 0 001.28 1.34c.547.32 1.153.48 1.82.48zm12.636-9.2c.413 0 .72.22.92.66l4.12 8.94c.12.267.133.507.04.72a.952.952 0 01-.48.46c-.586.267-1.02.133-1.3-.4l-3.26-7.4-3.36 7.4c-.12.253-.3.42-.54.5-.226.067-.48.033-.76-.1-.253-.12-.433-.28-.54-.48-.093-.2-.073-.433.06-.7l4.14-8.94c.2-.44.52-.66.96-.66z"/></svg><svg viewBox="0 0 54 45" id="icons--meat" xmlns="http://www.w3.org/2000/svg"><path d="M48.595 20.477l-.059-.327-.131.306c-.327.762-.743 1.49-1.242 2.166a.811.811 0 01-1.134.17l-.06.08.06-.08a.81.81 0 01-.17-1.134 9.23 9.23 0 001.665-7.1c-.412-2.274-1.741-4.075-3.96-5.394-2.215-1.317-5.317-2.153-9.282-2.506-7.33-.653-15.282.573-18.358 1.13C8.701 9.096 3.89 16.034 5.197 23.255c1.308 7.222 8.246 12.033 15.468 10.725 3.42-.619 5.897-2.221 8.5-3.906l.007-.004c3.008-1.946 6.105-3.95 10.94-4.825.282-.05.563-.116.838-.192l-.027-.097.027.097a.811.811 0 01.437 1.562c-.323.09-.655.166-.986.226-4.517.818-7.487 2.74-10.345 4.589l-.003.002c-2.765 1.789-5.36 3.467-9.1 4.144-5.545 1.004-10.942-1.209-14.266-5.304l-.175.087c1.673 6.752 8.349 11.144 15.287 9.888 3.421-.62 5.898-2.222 8.501-3.906l.007-.004c3.008-1.947 6.105-3.95 10.94-4.825 4.99-.903 8.314-5.698 7.41-10.687l-.063-.348zM34.426 5.042c3.91.349 7.097 1.177 9.476 2.458 2.94 1.582 4.69 3.86 5.218 6.77l1.134 6.266c1.063 5.87-2.848 11.51-8.718 12.572-4.516.818-7.486 2.74-10.344 4.589l-.003.002c-2.765 1.789-5.361 3.467-9.1 4.144-8.101 1.467-15.885-3.93-17.352-12.032l-1.135-6.267C2.136 15.444 7.533 7.66 15.634 6.192c3.146-.57 11.27-1.82 18.792-1.15z" stroke="#F5FAFF" stroke-width=".2"/><path d="M44.123 23.446h0a.811.811 0 01.951 1.314h0a.808.808 0 01-1.131-.166.811.811 0 01.163-1.135h0l.017-.013zM14.07 18.015c-.4-2.209 1.258-4.382 3.719-4.828 2.46-.445 4.774 1.01 5.174 3.219.4 2.209-1.257 4.382-3.718 4.827-2.46.446-4.774-1.008-5.174-3.218zm1.597-.288c.245 1.353 1.734 2.192 3.29 1.91 1.555-.281 2.655-1.59 2.41-2.943-.245-1.353-1.734-2.192-3.29-1.91-1.555.281-2.655 1.59-2.41 2.943z" stroke="#F5FAFF" stroke-width=".2"/></svg><svg fill="none" viewBox="0 0 62 62" id="icons--night" xmlns="http://www.w3.org/2000/svg"><path d="M59.697 31.355a1.027 1.027 0 00-1.535-1.192c-1.805 1.189-3.804 1.742-6.292 1.742-6.65 0-12.062-5.544-12.062-12.358 0-5.138 3.316-9.985 8.064-11.788a1.027 1.027 0 00-.05-1.938c-1.884-.605-4.052-.686-5.924-.686-10.533 0-19.102 8.752-19.102 19.511 0 1.62.195 3.233.585 4.805a11.438 11.438 0 00-3.93-.697c-6.304 0-11.433 5.067-11.433 11.296 0 .854.1 1.704.298 2.534a9.689 9.689 0 00-5.351 2.763 9.46 9.46 0 00-2.753 6.684c0 5.285 4.351 9.584 9.7 9.584H42c5.827 0 10.567-4.683 10.567-10.44a10.382 10.382 0 00-4.039-8.2c5.19-1.943 9.282-6.154 11.169-11.62zm-9.183 19.82c0 4.624-3.82 8.387-8.514 8.387H9.912c-4.216 0-7.646-3.379-7.646-7.531a7.418 7.418 0 012.16-5.24 7.667 7.667 0 015.258-2.279 1.026 1.026 0 00.936-1.374 9.092 9.092 0 01-.548-3.088c0-5.096 4.208-9.242 9.38-9.242 3.898 0 7.43 2.426 8.788 6.036a1.026 1.026 0 001.386.573 6.805 6.805 0 012.836-.619c3.218 0 6.013 2.252 6.645 5.355a1.027 1.027 0 001.205.802 8.712 8.712 0 011.69-.167c4.694 0 8.513 3.763 8.513 8.387zm-4.368-9.602a10.661 10.661 0 00-5.279-.777c-1.16-3.559-4.55-6.051-8.406-6.051-.92-.001-1.834.142-2.71.424a11.37 11.37 0 00-3.827-4.411 17.743 17.743 0 01-1.074-6.112c0-9.626 7.648-17.458 17.048-17.458.79 0 1.636.015 2.476.082-4.005 2.677-6.619 7.364-6.619 12.277 0 7.947 6.332 14.412 14.115 14.412 1.779 0 3.351-.247 4.798-.764-2.209 4.172-5.987 7.214-10.522 8.378z" fill="#64D370"/><path d="M53.594 14.377a1.026 1.026 0 00-1.027 1.027v1.656l-1.728-.576a1.026 1.026 0 10-.65 1.948l1.805.602-1.307 1.962a1.028 1.028 0 001.425 1.425c.112-.076.208-.173.283-.286l1.199-1.799 1.199 1.8a1.027 1.027 0 001.708-1.14l-1.307-1.962 1.804-.602a1.027 1.027 0 00-.65-1.948l-1.727.576v-1.656a1.027 1.027 0 00-1.027-1.027zM3.292 26.302l-1.728-.576a1.026 1.026 0 10-.65 1.948l1.805.602-1.308 1.962a1.027 1.027 0 101.709 1.14l1.199-1.8 1.199 1.8a1.027 1.027 0 101.708-1.14l-1.308-1.962 1.805-.602a1.027 1.027 0 00-.65-1.948l-1.728.576v-1.656a1.027 1.027 0 10-2.053 0v1.656zM7.856 10.097a1.026 1.026 0 001.424-.285l1.199-1.8 1.199 1.8a1.027 1.027 0 001.708-1.14L12.079 6.71l1.804-.601a1.027 1.027 0 00-.65-1.949l-1.728.577V3.08a1.027 1.027 0 00-2.053 0v1.656L7.724 4.16a1.026 1.026 0 00-.65 1.949l1.805.601-1.307 1.963a1.027 1.027 0 00.284 1.424zM58.728 6.162a1.027 1.027 0 100-2.054 1.027 1.027 0 000 2.054zM16.637 21.566a1.027 1.027 0 100-2.054 1.027 1.027 0 000 2.053zM32.037 2.054a1.027 1.027 0 100-2.054 1.027 1.027 0 000 2.054zM60.781 42.104a1.027 1.027 0 100-2.054 1.027 1.027 0 000 2.054z" fill="#64D370"/></svg><svg fill="none" viewBox="0 0 28 31" id="icons--phone" xmlns="http://www.w3.org/2000/svg"><path d="M21.206 12.617c-1.933 5.774-7.26 9.78-9.683 11.06l-2.475-4.04-8.556 3.665 1.633 7.54c20.977-1.929 25.46-20.546 25.08-29.614l-6.82-1.08-2.735 9.476 3.556 2.993z" fill="#65CF71"/></svg><svg viewBox="0 0 40 43" id="icons--table" xmlns="http://www.w3.org/2000/svg"><path d="M20.268 21c-1.248 0-2.366-.286-3.354-.858a6.724 6.724 0 01-2.366-2.366c-.572-.988-.858-2.106-.858-3.354 0-.243.07-.433.208-.572a.778.778 0 01.572-.234c.225 0 .416.078.572.234.156.139.234.33.234.572 0 .936.217 1.785.65 2.548a5.228 5.228 0 001.794 1.794c.763.433 1.612.65 2.548.65.953 0 1.803-.217 2.548-.65a5.01 5.01 0 001.768-1.794c.45-.763.676-1.612.676-2.548 0-.953-.225-1.803-.676-2.548a4.749 4.749 0 00-1.768-1.794c-.745-.45-1.595-.676-2.548-.676h-4.732a.83.83 0 01-.572-.208.83.83 0 01-.208-.572V1.448c0-.225.07-.407.208-.546a.778.778 0 01.572-.234H25c.225 0 .416.078.572.234.156.139.234.32.234.546a.778.778 0 01-.234.572.778.778 0 01-.572.234h-8.684v5.59h3.952c1.248 0 2.366.286 3.354.858a6.26 6.26 0 012.34 2.366c.59.988.884 2.106.884 3.354 0 1.248-.295 2.366-.884 3.354a6.515 6.515 0 01-2.34 2.366c-.988.572-2.106.858-3.354.858zM38.945 25H8.425c-.323 0-.586.324-.586.724 0 .4.263.724.586.724h30.403v2.783H1.172v-2.783h4.91c.323 0 .586-.324.586-.724 0-.4-.263-.724-.586-.724H1.055C.473 25 0 25.585 0 26.303v3.072c0 .72.473 1.304 1.055 1.304h.826v10.873c0 .719.473 1.303 1.055 1.303h2.011c.582 0 1.055-.584 1.055-1.303v-7.123-1.448-2.302h27.745v11.018c0 .718.473 1.303 1.054 1.303h2.012c.581 0 1.055-.585 1.055-1.303V30.679h1.077c.582 0 1.055-.585 1.055-1.303v-3.073c0-.718-.473-1.303-1.055-1.303zM4.83 41.407H3.053V30.68H4.83v10.728zm31.866.145h-1.777V30.679h1.777v10.873z"/></svg><svg fill="none" viewBox="0 0 10 10" id="slider--slider-dot" xmlns="http://www.w3.org/2000/svg"><rect x="1" y="1" width="8" height="8" rx="4" stroke="#64D370" stroke-width="2"/></svg></svg>